<svg width="20" height="20" viewBox="0 0 20 20" fill="none" xmlns="http://www.w3.org/2000/svg">
<path d="M5.83333 1.66669H6.66667C6.88768 1.66669 7.09964 1.75448 7.25592 1.91076C7.4122 2.06704 7.5 2.27901 7.5 2.50002V3.33335H11.6667V2.50002C11.6667 2.27901 11.7545 2.06704 11.9107 1.91076C12.067 1.75448 12.279 1.66669 12.5 1.66669H13.3333C13.5543 1.66669 13.7663 1.75448 13.9226 1.91076C14.0789 2.06704 14.1667 2.27901 14.1667 2.50002V3.33335C14.8297 3.33335 15.4656 3.59675 15.9344 4.06559C16.4033 4.53443 16.6667 5.17031 16.6667 5.83335V15C16.6667 15.6631 16.4033 16.2989 15.9344 16.7678C15.4656 17.2366 14.8297 17.5 14.1667 17.5H5C4.33696 17.5 3.70107 17.2366 3.23223 16.7678C2.76339 16.2989 2.5 15.6631 2.5 15V5.83335C2.5 5.17031 2.76339 4.53443 3.23223 4.06559C3.70107 3.59675 4.33696 3.33335 5 3.33335V2.50002C5 2.27901 5.0878 2.06704 5.24408 1.91076C5.40036 1.75448 5.61232 1.66669 5.83333 1.66669ZM12.5 3.33335H13.3333V2.50002H12.5V3.33335ZM6.66667 3.33335V2.50002H5.83333V3.33335H6.66667ZM5 4.16669C4.55797 4.16669 4.13405 4.34228 3.82149 4.65484C3.50893 4.9674 3.33333 5.39133 3.33333 5.83335V6.66669H15.8333V5.83335C15.8333 5.39133 15.6577 4.9674 15.3452 4.65484C15.0326 4.34228 14.6087 4.16669 14.1667 4.16669H5ZM3.33333 15C3.33333 15.442 3.50893 15.866 3.82149 16.1785C4.13405 16.4911 4.55797 16.6667 5 16.6667H14.1667C14.6087 16.6667 15.0326 16.4911 15.3452 16.1785C15.6577 15.866 15.8333 15.442 15.8333 15V7.50002H3.33333V15ZM10 10.8334H14.1667V15H10V10.8334ZM10.8333 11.6667V14.1667H13.3333V11.6667H10.8333Z" fill="white"/>
</svg>
