<svg width="28" height="28" viewBox="0 0 28 28" fill="none" xmlns="http://www.w3.org/2000/svg">
<path d="M6.55199 23.3334C6.01455 23.3334 5.56616 23.1537 5.20682 22.7944C4.84749 22.435 4.66743 21.9862 4.66666 21.448V6.55202C4.66666 6.01458 4.84671 5.56619 5.20682 5.20685C5.56693 4.84752 6.01532 4.66746 6.55199 4.66669H21.4492C21.9858 4.66669 22.4342 4.84674 22.7943 5.20685C23.1544 5.56696 23.3341 6.01535 23.3333 6.55202V21.4492C23.3333 21.9859 23.1537 22.4342 22.7943 22.7944C22.435 23.1545 21.9862 23.3341 21.448 23.3334H6.55199ZM6.55199 22.1667H13.4167V5.83335H6.55199C6.37232 5.83335 6.20743 5.90802 6.05732 6.05735C5.90721 6.20669 5.83255 6.37158 5.83332 6.55202V21.4492C5.83332 21.6281 5.90799 21.7926 6.05732 21.9427C6.20666 22.0928 6.37116 22.1675 6.55082 22.1667M14.5833 22.1667H21.4492C21.628 22.1667 21.7925 22.092 21.9427 21.9427C22.0928 21.7934 22.1674 21.6285 22.1667 21.448V14H14.5833V22.1667ZM14.5833 12.8334H22.1667V6.55202C22.1667 6.37235 22.092 6.20746 21.9427 6.05735C21.7933 5.90724 21.6284 5.83258 21.448 5.83335H14.5833V12.8334Z" fill="white"/>
</svg>
