<svg width="28" height="28" viewBox="0 0 28 28" fill="none" xmlns="http://www.w3.org/2000/svg">
<path d="M9.46985 19.2955C9.72419 19.2955 9.9373 19.2092 10.1092 19.0365C10.2803 18.8646 10.3659 18.6511 10.3659 18.396C10.3659 18.1409 10.2795 17.9278 10.1069 17.7567C9.93419 17.5856 9.72069 17.5 9.46635 17.5C9.21202 17.5 8.99891 17.5864 8.82702 17.759C8.65513 17.9317 8.56958 18.1452 8.57035 18.3995C8.57113 18.6539 8.65746 18.8666 8.82935 19.0377C9.00124 19.2088 9.21474 19.2955 9.46985 19.2955ZM9.46985 14.8972C9.72419 14.8972 9.9373 14.8112 10.1092 14.6394C10.2803 14.4667 10.3659 14.2528 10.3659 13.9977C10.3659 13.7426 10.2795 13.5299 10.1069 13.3595C9.93419 13.1892 9.72069 13.1036 9.46635 13.1029C9.21202 13.1021 8.99891 13.188 8.82702 13.3607C8.65513 13.5334 8.56958 13.7472 8.57035 14.0024C8.57113 14.2575 8.65746 14.4702 8.82935 14.6405C9.00124 14.8109 9.21474 14.8964 9.46985 14.8972ZM9.46985 10.5C9.72419 10.5 9.9373 10.4141 10.1092 10.2422C10.2803 10.0695 10.3659 9.85563 10.3659 9.60052C10.3659 9.34541 10.2795 9.13269 10.1069 8.96235C9.93419 8.79202 9.72069 8.70646 9.46635 8.70569C9.21202 8.70491 8.99891 8.79085 8.82702 8.96352C8.65591 9.13619 8.57035 9.34969 8.57035 9.60402C8.57035 9.85835 8.65669 10.0715 8.82935 10.2434C9.00202 10.4152 9.21552 10.5008 9.46985 10.5ZM13.0574 18.9817H19.3399V17.815H13.0574V18.9817ZM13.0574 14.5834H19.3399V13.4167H13.0574V14.5834ZM13.0574 10.185H19.3399V9.01835H13.0574V10.185ZM6.55202 23.3334C6.01458 23.3334 5.56619 23.1537 5.20685 22.7944C4.84752 22.435 4.66746 21.9862 4.66669 21.448V6.55202C4.66669 6.01458 4.84674 5.56619 5.20685 5.20685C5.56696 4.84752 6.01535 4.66746 6.55202 4.66669H21.4492C21.9859 4.66669 22.4342 4.84674 22.7944 5.20685C23.1545 5.56696 23.3341 6.01535 23.3334 6.55202V21.4492C23.3334 21.9859 23.1537 22.4342 22.7944 22.7944C22.435 23.1545 21.9862 23.3341 21.448 23.3334H6.55202ZM6.55202 22.1667H21.4492C21.6281 22.1667 21.7926 22.092 21.9427 21.9427C22.0928 21.7934 22.1675 21.6285 22.1667 21.448V6.55202C22.1667 6.37235 22.092 6.20746 21.9427 6.05735C21.7934 5.90724 21.6285 5.83258 21.448 5.83335H6.55202C6.37235 5.83335 6.20746 5.90802 6.05735 6.05735C5.90724 6.20669 5.83258 6.37158 5.83335 6.55202V21.4492C5.83335 21.6281 5.90802 21.7926 6.05735 21.9427C6.20669 22.0928 6.37119 22.1675 6.55085 22.1667" fill="white"/>
</svg>
