<svg width="24" height="24" viewBox="0 0 24 24" fill="none" xmlns="http://www.w3.org/2000/svg">
<g clip-path="url(#clip0_732_133)">
<path d="M12.7073 3.63556C12.5198 3.44809 12.2655 3.34277 12.0003 3.34277C11.7352 3.34277 11.4809 3.44809 11.2933 3.63556L5.63634 9.29256C5.54083 9.38481 5.46465 9.49515 5.41224 9.61716C5.35983 9.73916 5.33225 9.87038 5.33109 10.0032C5.32994 10.1359 5.35524 10.2676 5.40552 10.3905C5.4558 10.5134 5.53006 10.6251 5.62395 10.719C5.71784 10.8128 5.82949 10.8871 5.95239 10.9374C6.07529 10.9877 6.20696 11.013 6.33974 11.0118C6.47252 11.0107 6.60374 10.9831 6.72575 10.9307C6.84775 10.8783 6.9581 10.8021 7.05034 10.7066L11.0003 6.75656V19.9996C11.0003 20.2648 11.1057 20.5191 11.2932 20.7067C11.4808 20.8942 11.7351 20.9996 12.0003 20.9996C12.2656 20.9996 12.5199 20.8942 12.7074 20.7067C12.895 20.5191 13.0003 20.2648 13.0003 19.9996V6.75656L16.9503 10.7066C17.1389 10.8887 17.3915 10.9895 17.6537 10.9872C17.9159 10.985 18.1668 10.8798 18.3522 10.6944C18.5376 10.509 18.6427 10.2582 18.645 9.99596C18.6473 9.73376 18.5465 9.48116 18.3643 9.29256L12.7073 3.63556Z" fill="white"/>
</g>
<defs>
<clipPath id="clip0_732_133">
<rect width="24" height="24" fill="white"/>
</clipPath>
</defs>
</svg>
