<svg width="24" height="24" viewBox="0 0 24 24" fill="none" xmlns="http://www.w3.org/2000/svg">
<g clip-path="url(#clip0_732_133)">
<path d="M11.2927 20.3644C11.4802 20.5519 11.7345 20.6572 11.9997 20.6572C12.2648 20.6572 12.5191 20.5519 12.7067 20.3644L18.3637 14.7074C18.4592 14.6152 18.5353 14.5048 18.5878 14.3828C18.6402 14.2608 18.6678 14.1296 18.6689 13.9968C18.6701 13.8641 18.6448 13.7324 18.5945 13.6095C18.5442 13.4866 18.4699 13.3749 18.3761 13.281C18.2822 13.1872 18.1705 13.1129 18.0476 13.0626C17.9247 13.0123 17.793 12.987 17.6603 12.9882C17.5275 12.9893 17.3963 13.0169 17.2743 13.0693C17.1522 13.1217 17.0419 13.1979 16.9497 13.2934L12.9997 17.2434V4.00044C12.9997 3.73522 12.8943 3.48087 12.7068 3.29333C12.5192 3.1058 12.2649 3.00044 11.9997 3.00044C11.7344 3.00044 11.4801 3.1058 11.2926 3.29333C11.105 3.48087 10.9997 3.73522 10.9997 4.00044V17.2434L7.04966 13.2934C6.86105 13.1113 6.60845 13.0105 6.34626 13.0128C6.08406 13.015 5.83325 13.1202 5.64784 13.3056C5.46243 13.491 5.35726 13.7418 5.35498 14.004C5.3527 14.2662 5.4535 14.5188 5.63566 14.7074L11.2927 20.3644Z" fill="white"/>
</g>
<defs>
<clipPath id="clip0_732_133">
<rect width="24" height="24" fill="white" transform="matrix(-1 0 0 -1 24 24)"/>
</clipPath>
</defs>
</svg>
