<svg width="250" height="28" viewBox="0 0 250 28" fill="none" xmlns="http://www.w3.org/2000/svg">
<circle cx="60" cy="14" r="14" fill="#4E96FF"/>
<path d="M14 19L9 14L14 9" stroke="white" stroke-linecap="round" stroke-linejoin="round"/>
<path d="M61.2955 7.86364V19.5H59.8864V9.34091H59.8182L56.9773 11.2273V9.79545L59.8864 7.86364H61.2955Z" fill="white"/>
<path d="M97.2045 19.5V18.4773L101.045 14.2727C101.496 13.7803 101.867 13.3523 102.159 12.9886C102.451 12.6212 102.667 12.2765 102.807 11.9545C102.951 11.6288 103.023 11.2879 103.023 10.9318C103.023 10.5227 102.924 10.1686 102.727 9.86932C102.534 9.57008 102.269 9.33901 101.932 9.17614C101.595 9.01326 101.216 8.93182 100.795 8.93182C100.348 8.93182 99.9583 9.02462 99.625 9.21023C99.2955 9.39205 99.0398 9.64773 98.858 9.97727C98.6799 10.3068 98.5909 10.6932 98.5909 11.1364H97.25C97.25 10.4545 97.4072 9.85606 97.7216 9.34091C98.036 8.82576 98.464 8.42424 99.0057 8.13636C99.5511 7.84848 100.163 7.70455 100.841 7.70455C101.523 7.70455 102.127 7.84848 102.653 8.13636C103.18 8.42424 103.593 8.8125 103.892 9.30114C104.191 9.78977 104.341 10.3333 104.341 10.9318C104.341 11.3598 104.263 11.7784 104.108 12.1875C103.956 12.5928 103.691 13.0455 103.312 13.5455C102.938 14.0417 102.417 14.6477 101.75 15.3636L99.1364 18.1591V18.25H104.545V19.5H97.2045Z" fill="white"/>
<path d="M140.205 19.5909C139.924 19.5909 139.684 19.4905 139.483 19.2898C139.282 19.089 139.182 18.8485 139.182 18.5682C139.182 18.2879 139.282 18.0473 139.483 17.8466C139.684 17.6458 139.924 17.5455 140.205 17.5455C140.485 17.5455 140.725 17.6458 140.926 17.8466C141.127 18.0473 141.227 18.2879 141.227 18.5682C141.227 18.7538 141.18 18.9242 141.085 19.0795C140.994 19.2348 140.871 19.3598 140.716 19.4545C140.564 19.5455 140.394 19.5909 140.205 19.5909ZM144.611 19.5909C144.33 19.5909 144.09 19.4905 143.889 19.2898C143.688 19.089 143.588 18.8485 143.588 18.5682C143.588 18.2879 143.688 18.0473 143.889 17.8466C144.09 17.6458 144.33 17.5455 144.611 17.5455C144.891 17.5455 145.132 17.6458 145.332 17.8466C145.533 18.0473 145.634 18.2879 145.634 18.5682C145.634 18.7538 145.586 18.9242 145.491 19.0795C145.401 19.2348 145.277 19.3598 145.122 19.4545C144.971 19.5455 144.8 19.5909 144.611 19.5909ZM149.017 19.5909C148.737 19.5909 148.496 19.4905 148.295 19.2898C148.095 19.089 147.994 18.8485 147.994 18.5682C147.994 18.2879 148.095 18.0473 148.295 17.8466C148.496 17.6458 148.737 17.5455 149.017 17.5455C149.297 17.5455 149.538 17.6458 149.739 17.8466C149.939 18.0473 150.04 18.2879 150.04 18.5682C150.04 18.7538 149.992 18.9242 149.898 19.0795C149.807 19.2348 149.684 19.3598 149.528 19.4545C149.377 19.5455 149.206 19.5909 149.017 19.5909Z" fill="white"/>
<path d="M188.841 19.6591C188.174 19.6591 187.574 19.5265 187.04 19.2614C186.506 18.9962 186.078 18.6326 185.756 18.1705C185.434 17.7083 185.258 17.1818 185.227 16.5909H186.591C186.644 17.1174 186.883 17.553 187.307 17.8977C187.735 18.2386 188.246 18.4091 188.841 18.4091C189.318 18.4091 189.742 18.2973 190.114 18.0739C190.489 17.8504 190.782 17.5436 190.994 17.1534C191.21 16.7595 191.318 16.3144 191.318 15.8182C191.318 15.3106 191.206 14.858 190.983 14.4602C190.763 14.0587 190.46 13.7424 190.074 13.5114C189.688 13.2803 189.246 13.1629 188.75 13.1591C188.394 13.1553 188.028 13.2102 187.653 13.3239C187.278 13.4337 186.97 13.5758 186.727 13.75L185.409 13.5909L186.114 7.86364H192.159V9.11364H187.295L186.886 12.5455H186.955C187.193 12.3561 187.492 12.1989 187.852 12.0739C188.212 11.9489 188.587 11.8864 188.977 11.8864C189.689 11.8864 190.324 12.0568 190.881 12.3977C191.441 12.7348 191.881 13.197 192.199 13.7841C192.521 14.3712 192.682 15.0417 192.682 15.7955C192.682 16.5379 192.515 17.2008 192.182 17.7841C191.852 18.3636 191.398 18.822 190.818 19.1591C190.239 19.4924 189.58 19.6591 188.841 19.6591Z" fill="white"/>
<path d="M236 19L241 14L236 9" stroke="white" stroke-linecap="round" stroke-linejoin="round"/>
</svg>
