<svg width="28" height="28" viewBox="0 0 28 28" fill="none" xmlns="http://www.w3.org/2000/svg">
<path d="M14 21.4935C13.076 21.4935 12.2916 21.1711 11.6468 20.5263C11.0013 19.8815 10.6785 19.0971 10.6785 18.1731C10.6785 17.2491 11.0013 16.4644 11.6468 15.8188C12.2908 15.1748 13.0752 14.8528 14 14.8528C14.9248 14.8528 15.7092 15.1748 16.3532 15.8188C16.9987 16.4644 17.3215 17.2491 17.3215 18.1731C17.3215 19.0971 16.9987 19.8815 16.3532 20.5263C15.7076 21.1711 14.9232 21.4935 14 21.4935ZM14.0047 20.3268C14.5981 20.3268 15.1048 20.1156 15.5248 19.6933C15.9448 19.271 16.1548 18.7627 16.1548 18.1685C16.1548 17.5743 15.9433 17.0675 15.5202 16.6483C15.0971 16.2291 14.5888 16.0191 13.9953 16.0183C13.4019 16.0175 12.8952 16.2291 12.4752 16.653C12.0552 17.0769 11.8452 17.5851 11.8452 18.1778C11.8452 18.7705 12.0567 19.2772 12.4798 19.698C12.9029 20.1188 13.4112 20.3284 14.0047 20.3268ZM5.77967 10.0788L4.93384 9.25981C6.10439 8.11259 7.44995 7.20259 8.9705 6.52981C10.4887 5.85548 12.1652 5.51831 14 5.51831C15.8348 5.51831 17.5117 5.8547 19.0307 6.52748C20.5497 7.20025 21.8952 8.11026 23.0673 9.25748L22.2203 10.0776C21.1392 9.01364 19.8932 8.1822 18.4823 7.58331C17.0714 6.98442 15.5773 6.68537 14 6.68614C12.4227 6.68692 10.9286 6.98637 9.51767 7.58448C8.10678 8.18259 6.86078 9.01403 5.77967 10.0788ZM18.9047 13.3338C18.2078 12.6696 17.4576 12.1734 16.6542 11.8451C15.8507 11.5169 14.966 11.3528 14 11.3528C13.034 11.3528 12.1543 11.5169 11.361 11.8451C10.5677 12.1734 9.81245 12.6696 9.09534 13.3338L8.2495 12.5148C9.09028 11.7526 9.98473 11.1735 10.9328 10.7776C11.8809 10.3818 12.9033 10.185 14 10.1873C15.0967 10.1896 16.1183 10.3872 17.0648 10.78C18.0114 11.1728 18.9043 11.7514 19.7435 12.516L18.9047 13.3338Z" fill="white"/>
</svg>
